<?xml version="1.0" standalone="no"?>
<!DOCTYPE svg PUBLIC "-//W3C//DTD SVG 20010904//EN"
 "http://www.w3.org/TR/2001/REC-SVG-20010904/DTD/svg10.dtd">
<svg version="1.0" xmlns="http://www.w3.org/2000/svg"
 width="2000.000000pt" height="2000.000000pt" viewBox="0 0 2000.000000 2000.000000"
 preserveAspectRatio="xMidYMid meet">
<metadata>
Created by potrace 1.14, written by Peter Selinger 2001-2017
</metadata>
<g transform="translate(0.000000,2000.000000) scale(0.100000,-0.100000)"
fill="#000000" stroke="none">
<path d="M6293 16133 c4 -43 12 -107 18 -143 6 -36 13 -74 14 -85 18 -130 133
-509 201 -663 13 -29 24 -55 24 -58 0 -14 154 -310 204 -393 31 -51 55 -95 54
-97 -3 -2 -915 220 -1078 263 -14 3 -33 8 -42 9 -9 2 -59 15 -110 28 -51 14
-104 27 -118 30 -14 2 -63 14 -110 26 -47 12 -92 23 -100 25 -8 2 -118 29
-243 61 -125 31 -231 54 -234 50 -12 -12 98 -408 142 -511 7 -16 27 -67 45
-113 44 -111 165 -357 236 -478 178 -306 368 -550 624 -806 l157 -156 -56 4
c-31 2 -96 6 -146 9 -49 2 -110 7 -135 10 -25 2 -92 7 -150 10 -58 3 -132 7
-165 10 -33 2 -100 7 -150 10 -49 3 -115 8 -145 10 -81 6 -247 16 -310 20 -30
1 -98 6 -150 9 -140 10 -213 15 -335 21 -60 4 -121 8 -134 10 -13 2 -28 2 -32
0 -12 -8 45 -145 131 -320 44 -88 84 -167 89 -175 5 -8 33 -55 62 -105 271
-468 655 -892 1094 -1208 66 -48 132 -93 148 -99 15 -7 27 -16 27 -19 0 -4 8
-9 18 -13 9 -3 42 -21 72 -40 30 -19 88 -52 128 -73 80 -40 80 -41 -8 -58 -14
-2 -111 -23 -215 -46 -105 -22 -199 -42 -210 -45 -11 -2 -33 -7 -50 -11 -16
-4 -32 -7 -35 -8 -3 -1 -25 -5 -50 -10 -25 -5 -47 -9 -50 -10 -3 -1 -18 -4
-35 -8 -16 -4 -39 -9 -50 -11 -11 -3 -65 -14 -120 -26 -55 -12 -109 -24 -120
-26 -11 -2 -30 -6 -42 -9 -32 -7 -104 -23 -138 -29 -52 -11 -307 -67 -365 -80
-36 -8 -76 -17 -90 -20 -39 -7 -134 -27 -145 -30 -5 -2 -38 -9 -72 -16 -35 -7
-63 -15 -63 -19 1 -12 115 -126 226 -226 435 -394 1001 -719 1597 -920 157
-53 384 -117 491 -140 11 -2 32 -6 46 -9 48 -11 75 -16 110 -21 19 -3 46 -8
60 -10 14 -3 36 -8 50 -10 31 -7 166 -26 191 -28 11 -1 19 -4 19 -7 0 -4 -42
-26 -92 -50 -51 -24 -203 -97 -337 -162 -134 -65 -276 -134 -315 -152 -39 -19
-132 -63 -206 -99 -194 -93 -309 -146 -355 -164 -22 -9 -44 -19 -48 -23 -21
-18 303 -181 563 -283 91 -36 230 -86 310 -112 133 -43 483 -136 555 -148 17
-3 68 -12 115 -21 126 -23 135 -25 260 -40 214 -28 236 -30 425 -41 194 -12
526 -7 718 10 l67 6 -77 -72 c-43 -40 -87 -82 -99 -93 -12 -12 -65 -61 -119
-111 -54 -49 -119 -110 -145 -135 -26 -25 -92 -86 -146 -136 -170 -157 -188
-174 -222 -206 -18 -17 -31 -33 -29 -35 5 -4 228 -50 287 -58 25 -3 52 -8 60
-10 8 -2 42 -6 75 -10 33 -3 74 -8 90 -10 43 -6 126 -13 230 -21 185 -15 715
-8 865 11 19 3 58 7 85 10 288 33 607 99 858 178 34 11 47 12 44 4 -3 -7 -68
-115 -145 -242 -78 -126 -139 -231 -137 -233 24 -24 736 -21 775 3 3 2 30 6
60 10 30 3 62 8 70 10 8 2 33 7 55 10 23 3 52 8 65 11 14 3 39 7 55 10 17 3
48 10 70 16 22 5 49 12 60 14 11 2 52 13 90 24 39 12 77 23 85 25 8 2 43 12
78 23 l62 20 -29 -51 c-16 -29 -40 -72 -53 -97 -13 -25 -43 -77 -66 -117 -23
-39 -42 -74 -42 -77 0 -3 -19 -38 -43 -78 -23 -40 -50 -86 -60 -103 -17 -30
-191 -327 -207 -355 -5 -8 -65 -107 -133 -220 -68 -113 -130 -216 -138 -229
-7 -13 -66 -108 -130 -210 l-116 -186 -84 2 c-137 4 -656 3 -1089 -2 -666 -6
-2002 -16 -2513 -18 l-479 -2 35 -30 c38 -33 268 -194 307 -216 14 -8 27 -16
30 -19 3 -3 41 -27 85 -54 122 -72 349 -181 455 -217 103 -35 112 -39 93 -46
-37 -13 -336 -245 -454 -353 -186 -169 -290 -275 -428 -435 -78 -91 -222 -280
-254 -334 l-18 -30 68 25 c37 13 77 29 88 33 11 5 133 51 270 101 138 51 309
115 380 142 72 27 135 51 140 52 6 2 17 6 25 9 39 16 206 78 215 80 12 3 770
284 800 297 11 4 83 32 160 60 77 29 210 78 295 110 85 32 218 81 295 109 77
29 147 55 155 58 8 3 20 7 25 9 25 6 473 176 500 189 17 8 90 42 164 75 159
72 359 176 514 267 62 36 128 74 147 85 19 11 41 25 49 32 9 7 78 11 205 12
173 1 385 9 476 19 19 2 69 7 110 10 41 4 77 8 80 10 3 1 37 6 75 9 39 4 77 9
85 11 16 5 51 10 120 20 25 4 97 18 160 31 144 31 148 32 185 40 51 10 346 94
425 121 41 14 104 36 140 48 237 82 620 260 825 384 37 23 71 41 76 41 5 0 9
5 9 10 0 6 5 10 11 10 17 0 315 201 406 274 280 225 470 402 629 586 22 25 52
58 67 75 55 59 255 332 319 435 170 273 319 618 403 930 2 8 13 49 24 90 27
99 76 333 87 415 2 17 6 41 8 55 3 14 8 50 11 80 4 30 8 66 10 80 7 47 21 214
31 360 4 74 4 485 -1 585 -3 74 -12 216 -20 310 -3 44 -14 145 -20 185 -2 14
-7 48 -10 75 -48 363 -158 771 -305 1135 l-50 123 69 106 c107 165 205 350
271 512 12 30 29 68 36 86 8 17 14 35 14 40 0 4 6 20 14 35 14 26 118 343 150
458 18 62 120 483 130 535 37 188 172 596 282 845 40 90 176 363 216 432 18
31 50 86 70 121 170 295 471 674 757 955 147 145 142 146 -54 13 -158 -107
-401 -297 -531 -416 -144 -131 -204 -189 -336 -322 -191 -193 -190 -192 -459
-488 -44 -48 -230 -261 -280 -318 -13 -16 -37 -43 -53 -60 -52 -58 -260 -310
-386 -467 -238 -296 -421 -495 -590 -641 -41 -35 -77 -66 -80 -69 -14 -14
-162 -120 -210 -150 -84 -53 -88 -56 -185 -104 -141 -70 -222 -100 -445 -163
-264 -74 -593 -228 -855 -402 -185 -122 -314 -229 -480 -396 -144 -145 -249
-277 -348 -437 l-66 -107 52 23 c59 26 158 52 232 61 28 4 61 8 75 11 34 6
384 5 440 -1 25 -2 72 -7 105 -10 33 -3 71 -8 85 -10 14 -2 59 -9 100 -14 149
-21 475 -95 508 -115 5 -3 9 -27 10 -53 2 -55 12 -168 18 -197 2 -11 6 -38 10
-61 32 -217 153 -536 316 -835 20 -36 52 -95 71 -132 20 -37 54 -97 77 -134
22 -36 40 -68 40 -70 0 -3 16 -28 35 -56 l34 -52 -47 -31 c-75 -51 -234 -136
-347 -186 -99 -43 -324 -120 -400 -135 -11 -2 -30 -6 -43 -8 -12 -3 -25 -7
-30 -9 -4 -3 -32 -8 -62 -12 -30 -4 -57 -8 -60 -10 -3 -2 -33 -7 -65 -10 -33
-4 -69 -9 -80 -12 -11 -3 -117 -6 -235 -8 -229 -3 -369 9 -540 46 -52 11 -102
22 -110 24 -119 25 -326 100 -485 176 -374 179 -743 492 -977 829 -227 326
-384 720 -433 1083 -4 27 -8 57 -10 68 -8 40 -18 238 -17 323 11 734 301 1375
848 1877 112 102 339 263 469 331 28 14 70 37 95 50 25 13 76 36 113 52 38 16
65 32 60 36 -8 6 -76 32 -263 98 -47 17 -242 88 -435 157 -192 70 -361 131
-375 135 -14 5 -74 27 -135 48 -60 22 -168 61 -240 86 -71 26 -139 50 -150 55
-11 5 -148 55 -305 111 -157 56 -340 122 -407 146 -67 24 -125 44 -128 44 -4
0 -21 6 -38 14 -18 8 -72 29 -122 46 -49 18 -133 48 -185 67 -52 19 -106 38
-120 43 -14 4 -180 64 -370 133 -190 69 -440 159 -555 200 -116 41 -228 82
-250 90 -22 9 -155 57 -295 107 -140 50 -302 109 -360 130 -58 21 -168 61
-245 88 -77 28 -153 55 -169 61 l-29 12 6 -78z m7795 -3012 c184 -94 446 -389
641 -722 61 -104 191 -379 211 -446 13 -42 12 -43 -24 -90 -161 -209 -399
-363 -671 -435 -44 -11 -87 -22 -95 -23 -8 -1 -49 -8 -90 -15 -117 -22 -428
-18 -555 6 -11 2 -36 7 -55 10 -19 4 -44 9 -55 11 -11 2 -31 6 -45 9 -14 2
-47 10 -75 18 l-50 12 0 85 c0 46 3 104 6 129 4 25 10 65 13 90 3 25 8 56 11
70 19 99 28 139 36 165 5 17 18 60 29 97 75 260 235 520 495 807 63 70 228
241 232 241 2 0 20 -9 41 -19z"/>
</g>
</svg>
